<svg width="73" height="76" viewBox="0 0 73 76" fill="none" xmlns="http://www.w3.org/2000/svg">
<path d="M33.0088 58.9472C33.8401 56.3843 34.6666 53.9007 35.4343 51.3991C35.6589 50.6671 36.0389 50.393 36.7916 50.4413C37.6524 50.4964 38.5196 50.454 39.3191 50.454C39.6302 50.9663 39.3633 51.3139 39.2512 51.6574C37.8438 55.9696 36.4039 60.2713 35.0202 64.5909C34.7704 65.3709 34.3957 65.6722 33.5867 65.5629C32.968 65.4793 32.3193 65.425 31.7087 65.5189C30.8215 65.6553 30.4411 65.2709 30.1929 64.4912C29.4309 62.0975 28.6302 59.716 27.8412 57.3309C27.733 57.004 27.6056 56.6835 27.4031 56.1308C26.9826 57.368 26.6253 58.397 26.2832 59.431C25.7024 61.1862 25.1156 62.9397 24.5644 64.7043C24.3652 65.3421 24.0367 65.5912 23.343 65.5252C22.5833 65.453 21.8077 65.4997 21.0425 65.5487C20.4292 65.588 20.0655 65.3827 19.865 64.7796C18.3562 60.2426 16.8288 55.7118 15.3129 51.1771C15.2599 51.0186 15.2657 50.8405 15.2266 50.5347C16.4368 50.377 17.6063 50.4303 18.7687 50.5083C19.2333 50.5395 19.2784 51.022 19.3976 51.3791C20.2154 53.8285 21.0291 56.2792 21.8492 58.7277C21.9783 59.1132 22.0391 59.5364 22.4738 59.9216C23.0796 58.1136 23.6653 56.3715 24.247 54.6281C24.6005 53.5686 24.9767 52.5155 25.2879 51.4436C25.4908 50.7445 25.8268 50.4109 26.6137 50.4401C29.7896 50.5579 29.0156 49.9043 30.033 52.8646C30.836 55.2009 31.6087 57.5475 32.4168 59.955C32.8443 59.6926 32.8393 59.3127 33.0088 58.9472Z" fill="#0B2E58"/>
<path d="M5.05832 50.4536C6.42031 50.4552 7.67751 50.4603 8.93469 50.4571C9.78692 50.4549 10.5959 50.6503 11.378 50.9717C13.9585 52.032 14.6478 55.0017 12.8022 57.0984C12.6677 57.2512 12.5342 57.4047 12.3482 57.6174C13.2714 58.2419 13.994 58.9759 14.2963 60.0313C15.1086 62.8673 13.4415 65.2411 10.2762 65.4148C7.107 65.5888 3.92309 65.4919 0.745722 65.523C0.160035 65.5287 0.076003 65.2061 0.0798982 64.7121C0.114533 60.3151 0.153856 55.9179 0.135416 51.5209C0.131981 50.7012 0.343653 50.4 1.18257 50.439C2.43707 50.4973 3.69631 50.4538 5.05832 50.4536ZM5.40759 59.3388C4.39053 59.1917 3.8789 59.559 4.03378 60.6524C4.07727 60.9594 4.05456 61.2783 4.03897 61.5906C4.00799 62.211 4.29371 62.4714 4.91081 62.4613C6.16281 62.4409 7.41606 62.476 8.66735 62.4392C9.92128 62.4023 10.4957 61.8879 10.4818 60.9068C10.4684 59.954 9.86345 59.4206 8.63474 59.3663C7.62774 59.3218 6.61766 59.3468 5.40759 59.3388ZM6.62618 53.4521C3.88354 53.4512 3.77906 53.5429 4.04377 55.6415C4.08591 55.9756 4.14252 56.3089 4.54274 56.3135C5.96464 56.3296 7.39715 56.5106 8.80368 56.1874C9.54864 56.0162 9.89615 55.4855 9.84075 54.7159C9.78577 53.9521 9.27854 53.6212 8.60158 53.5371C8.01691 53.4645 7.42162 53.4774 6.62618 53.4521Z" fill="#0B2E58"/>
<path d="M56.3618 59.3926C55.641 63.0169 52.8619 65.3685 49.1676 65.4676C46.798 65.5311 44.4258 65.4904 42.055 65.5154C41.4485 65.5218 41.193 65.3333 41.1976 64.6685C41.2279 60.276 41.3183 55.8828 41.1419 51.4913C41.1125 50.7591 41.3738 50.4259 42.1699 50.4415C44.2612 50.4825 46.354 50.4494 48.4462 50.4536C53.7499 50.4642 56.9297 54.0114 56.3618 59.3926ZM45.0966 61.2574C45.0378 61.9605 45.3376 62.2911 46.0654 62.2608C46.866 62.2274 47.6703 62.2733 48.4701 62.2308C50.9296 62.1002 52.5123 60.4296 52.5535 57.9538C52.593 55.5793 50.9228 53.8302 48.4526 53.6903C47.6879 53.647 46.9181 53.6962 46.1529 53.6576C45.3286 53.6159 45.0578 53.9867 45.0726 54.7846C45.1115 56.8759 45.0919 58.9682 45.0966 61.2574Z" fill="#0B2E58"/>
<path d="M61.6786 65.5017C60.7172 65.4932 59.8453 65.4888 58.9735 65.4782C58.909 65.4774 58.8451 65.4321 58.7806 65.4071C58.5904 65.2529 58.6181 65.0383 58.6184 64.8301C58.6243 60.3992 58.6465 55.9682 58.6191 51.5374C58.6142 50.751 58.7806 50.412 59.6487 50.4324C61.9502 50.4864 64.2543 50.4213 66.5563 50.4642C69.2995 50.5154 71.4449 52.1591 71.98 54.541C72.784 58.1193 70.4869 61.0811 66.7467 61.2692C65.7718 61.3182 64.7934 61.3521 63.8183 61.327C62.9172 61.3038 62.435 61.5762 62.5273 62.5819C62.594 63.3084 62.5312 64.0461 62.5397 64.7787C62.5458 65.3119 62.2956 65.5497 61.6786 65.5017ZM64.6515 58.2074C65.3185 58.2491 65.9729 58.1645 66.604 57.9555C67.6162 57.6204 68.1202 56.9066 68.1146 55.836C68.1091 54.7724 67.599 54.1059 66.5506 53.7659C65.6005 53.4578 64.621 53.6062 63.6546 53.5586C62.8194 53.5175 62.451 53.911 62.5336 54.7652C62.5836 55.2817 62.5411 55.8069 62.5438 56.3282C62.5548 58.4677 62.3539 58.1828 64.6515 58.2074Z" fill="#0B2E58"/>
<path d="M41.7347 19.7335C35.212 23.4659 28.2942 25.3284 20.8316 24.9736C18.6693 24.8709 16.5245 24.581 14.4165 24.0665C13.8487 23.928 13.2164 23.8891 13.1555 23.0677C13.0966 22.2721 13.2606 21.6021 14.0035 21.1928C14.5843 20.8728 15.174 20.567 15.7715 20.2794C16.3607 19.9958 16.63 19.5513 16.7288 18.898C17.8491 11.4955 21.9084 6.32501 28.6974 3.25998C29.9673 2.6867 30.0113 2.72922 30.3713 4.09405C30.9663 6.34991 31.5535 8.60784 32.2636 10.8498C32.0899 8.79925 31.9084 6.7493 31.7464 4.69782C31.6778 3.82892 31.6436 2.95708 31.6059 2.08604C31.5663 1.17027 32.0355 0.600714 32.9102 0.470635C34.9867 0.161819 37.0751 -0.0129204 39.1588 0.416176C40.2422 0.639292 40.736 1.26407 40.6531 2.35059C40.4517 4.99112 40.2152 7.62897 40.0905 10.3032C40.3485 9.37751 40.6142 8.45393 40.8627 7.52572C41.2145 6.21121 41.557 4.89415 41.8967 3.57641C42.0598 2.94324 42.3376 2.73911 43.0248 3.02382C45.3731 3.99665 47.4814 5.31872 49.3746 7.01668C50.1218 7.68685 50.1009 8.14933 49.4134 8.88339C43.6032 15.0869 36.3232 18.4922 28.127 20.184C26.4183 20.5367 24.691 20.7524 22.9544 20.8634C30.0624 21.0626 36.6836 19.345 42.7493 15.638C48.8407 11.9153 53.4339 6.85427 56.0902 0.000274658C56.4931 0.525456 56.236 0.912546 56.1458 1.27214C54.3631 8.37267 50.1858 13.793 44.3398 18.0295C43.5211 18.6228 42.649 19.1425 41.7347 19.7335ZM25.1441 9.09504C22.4824 11.5975 20.7161 14.5931 20.0117 18.1963C20.799 18.6449 21.1285 18.3139 21.3002 17.6609C22.3694 13.5937 24.7058 10.4476 28.2324 8.1843C28.8028 7.81822 28.9129 7.46184 28.4421 6.88813C27.2082 7.33328 26.2683 8.22109 25.1441 9.09504Z" fill="#17476D"/>
<path d="M40.6531 2.35009C40.736 1.26357 40.2422 0.638789 39.1588 0.415673C38.0991 0.197457 37.0382 0.135419 35.9783 0.167749L36.5492 17.7001C40.9653 15.759 45.933 12.5988 49.4134 8.88288C50.1009 8.14883 50.1218 7.68635 49.3745 7.01617C47.4814 5.31821 45.3731 3.99615 43.0248 3.02332C42.3376 2.73861 42.0598 2.94274 41.8966 3.57591C41.557 4.89365 41.2145 6.2107 40.8627 7.52522C40.6142 8.45343 40.3485 9.37701 40.0904 10.3027C40.2152 7.62846 40.4516 4.99062 40.6531 2.35009Z" fill="#F37703"/>
<path d="M55.5873 19.0601C55.6056 19.7757 56.0651 20.0347 56.5387 20.2831C57.0642 20.5587 57.5919 20.8303 58.1131 21.1138C58.9385 21.5626 59.1464 22.3263 59.0304 23.1673C58.9126 24.0214 58.1686 24.0546 57.5084 24.1597C57.2085 24.2074 51.9565 24.2054 51.6753 24.4186C51.72 24.4672 56.6806 24.4499 56.7213 24.4524C58.9346 24.5853 58.9347 24.5847 58.5909 26.7958C58.3086 28.612 58.3189 28.7347 56.423 28.8931C54.5439 29.0501 53.4174 29.739 52.6126 31.5837C51.986 33.0202 51.8443 34.0688 52.7943 35.2706C53.0518 35.5964 53.2189 35.9922 53.4462 36.3437C53.7274 36.7786 53.7176 37.1586 53.3828 37.5821C52.2682 38.992 50.9125 40.1391 49.51 41.2415C49.1162 41.551 48.765 41.5212 48.3715 41.2396C47.7471 40.7928 47.0671 40.4174 46.4755 39.9325C45.7692 39.3537 45.1235 39.2304 44.3146 39.7534C43.4329 40.3235 42.4206 40.6455 41.4206 40.9518C40.7801 41.148 40.4136 41.4975 40.2929 42.1651C40.1627 42.8851 39.929 43.5869 39.8088 44.3081C39.6841 45.0557 39.2526 45.3906 38.5415 45.4531C36.8684 45.5999 35.1957 45.605 33.5243 45.4293C32.8983 45.3635 32.4656 45.0807 32.4244 44.3947C32.2875 42.1127 31.0987 40.9644 28.9083 40.1467C27.173 39.4989 26.0181 39.4841 24.6184 40.6381C23.2401 41.7743 23.1553 41.6822 21.741 40.5016C20.7487 39.6732 19.7951 38.8074 18.9728 37.7985C18.5378 37.2649 18.3896 36.7456 18.8401 36.1992C20.2936 34.4359 20.4084 32.7212 19.1171 30.7303C18.5322 29.8284 18.0627 29.1654 16.9628 29.1039C16.5466 29.0806 16.1328 28.9978 15.7204 28.9274C13.8234 28.6034 13.3747 27.9456 13.6709 25.7784C14.5802 25.9226 15.4991 26.0291 16.4003 26.2193C18.3572 26.6322 20.3421 26.7582 22.3295 26.8001C23.1406 26.8172 23.5628 27.0823 23.8952 27.8473C25.735 32.081 28.8296 34.9491 33.3969 35.9252C40.5621 37.4567 47.5768 32.7579 48.9546 25.5538C49.2053 24.2429 49.611 23.1983 50.6586 22.2641C52.0294 21.0416 53.2606 19.6351 54.2341 18.0421C54.4137 17.7483 54.612 17.4584 54.9864 17.2646C55.5181 17.7327 55.3729 18.4199 55.5873 19.0601Z" fill="#F37703"/>
<path d="M47.822 17.2057C48.7279 16.3439 49.5783 15.5317 50.4832 14.6674C50.479 15.5669 48.175 18.3799 45.1902 21.2285C43.11 23.2138 40.818 24.9313 38.3679 26.4227C35.9209 27.9121 33.3466 29.1608 30.4119 30.1634C32.1853 32.0018 34.125 33.1227 36.4995 33.553C38.8412 33.9774 41.0295 33.4799 43.1992 32.6611C40.4852 34.8154 37.4145 35.648 34.0058 35.0329C29.7297 34.2611 26.0475 31.19 24.7861 26.8986C33.595 26.4021 41.1709 22.9716 47.822 17.2057Z" fill="#17476D"/>
<path d="M49.3743 22.1124C45.1481 26.0426 40.2505 28.6084 34.8132 30.2382C46.6347 23.3682 55.5318 14.1972 58.6001 0.18C60.3944 4.55562 55.5197 15.9299 49.3743 22.1124Z" fill="#F37703"/>
<path d="M20.5568 26.7569C28.129 45.8178 50.3992 38.6408 51.6546 24.428L49.1915 24.5836L49.0007 25.2498C46.7334 38.192 28.1446 40.5579 23.5248 26.827L20.5568 26.7569Z" fill="#C96303"/>
<path d="M70.4196 71.5651C70.4168 70.9193 70.4208 70.3609 70.4105 69.8027C70.4006 69.2638 70.5993 68.9374 71.1911 68.9282C71.7312 68.9197 72.0877 69.1273 72.0915 69.6979C72.1033 71.477 72.1005 73.2564 72.0859 75.0355C72.0829 75.4045 71.9464 75.7378 71.5028 75.7755C71.006 75.8177 70.5162 75.8094 70.1973 75.3233C69.7955 74.7107 69.3952 74.097 68.9903 73.4863C68.7622 73.1422 68.5775 72.7557 68.0911 72.5479C67.7808 73.32 67.9558 74.1272 67.8522 74.8952C67.7728 75.4842 67.5706 75.7823 66.9359 75.7495C66.3071 75.717 66.2095 75.331 66.2083 74.8289C66.2045 73.2586 66.1864 71.6882 66.195 70.1179C66.1973 69.6907 66.0402 69.1403 66.6579 68.9839C67.277 68.8271 67.8247 68.947 68.2045 69.5452C68.7466 70.399 69.3135 71.2371 69.8767 72.0773C69.9687 72.2146 70.0962 72.3282 70.215 72.4613C70.5206 72.2103 70.3769 71.9103 70.4196 71.5651Z" fill="#FA8316"/>
<path d="M18.209 72.2499C18.7625 72.2204 18.5928 71.8204 18.6062 71.5539C18.6376 70.9285 18.6204 70.3005 18.6189 69.6736C18.6177 69.1398 18.909 68.9279 19.4112 68.9366C19.9005 68.9452 20.2092 69.1393 20.2086 69.6786C20.2067 71.4549 20.2109 73.2311 20.2074 75.0074C20.2067 75.3336 20.1558 75.6606 19.7517 75.7158C19.265 75.7823 18.7591 75.8399 18.4221 75.3575C17.9438 74.6727 17.4826 73.976 17.0088 73.288C16.8179 73.0108 16.6997 72.6582 16.2572 72.5483C15.8437 73.2539 16.0621 74.0269 16.0265 74.7611C15.9994 75.3196 16.0097 75.8075 15.2129 75.7776C14.4512 75.749 14.4147 75.2895 14.4175 74.7202C14.425 73.1528 14.4076 71.5853 14.4137 70.018C14.4152 69.6252 14.2415 69.1157 14.8215 68.9743C15.3875 68.8364 15.938 68.8777 16.3074 69.4358C16.9217 70.3638 17.5364 71.2917 18.209 72.2499Z" fill="#FA8316"/>
<path d="M13.7274 72.9831C13.1794 74.9332 11.9483 75.8767 10.1607 75.7916C8.47412 75.7112 7.26303 74.6582 6.96799 73.0157C6.6703 71.3585 7.47932 69.8072 8.98193 69.154C11.5329 68.045 13.9843 69.9761 13.7274 72.9831ZM11.13 74.1161C12.3093 73.166 12.4715 71.5759 11.4347 70.8298C10.7127 70.3102 9.93752 70.2722 9.21881 70.8561C8.60964 71.351 8.45266 72.5398 8.9052 73.3704C9.35908 74.2033 10.0429 74.5653 11.13 74.1161Z" fill="#FA8316"/>
<path d="M64.5683 69.8108C65.9807 71.5785 65.884 73.6996 64.3902 74.9998C63.0425 76.1728 60.8884 76.0629 59.6615 74.7586C58.5003 73.524 58.4507 71.3342 59.5554 70.0722C60.8278 68.6185 62.8043 68.4924 64.5683 69.8108ZM60.5612 71.5797C60.3852 72.0624 60.4321 72.5398 60.5904 73.0164C60.9676 74.1513 61.9237 74.6582 62.8541 74.179C63.7039 73.7414 63.9796 72.9835 63.901 72.0715C63.8307 71.2575 63.4407 70.6646 62.6148 70.4954C61.7455 70.3174 61.02 70.5521 60.5612 71.5797Z" fill="#FA8316"/>
<path d="M36.7881 69.9815C37.3315 71.0058 37.2218 71.9312 36.4367 72.6244C35.8912 73.106 36.0048 73.4704 36.2858 73.967C36.571 74.471 36.9378 74.9472 37.0287 75.6016C36.3142 75.7934 35.6912 75.9561 35.1843 75.2986C34.7903 74.7874 34.63 74.0994 34.0422 73.7122C33.5442 74.0466 33.6409 74.5372 33.6309 74.9661C33.6174 75.5368 33.3915 75.7949 32.8038 75.764C32.2999 75.7375 32.0338 75.5487 32.0287 75.0085C32.0121 73.2637 31.9694 71.5193 31.9499 69.7745C31.9463 69.4581 32.0089 69.1506 32.3514 68.9867C33.3072 68.5293 35.9447 69.0813 36.7881 69.9815ZM35.3503 71.03C35.0942 70.4131 34.5916 70.3644 34.0543 70.5235C33.6993 70.6287 33.6459 70.9668 33.6906 71.2962C33.7385 71.6492 33.9503 71.8613 34.3117 71.8791C34.8259 71.9045 35.3084 71.8611 35.3503 71.03Z" fill="#FA8316"/>
<path d="M45.7836 71.6372C45.687 72.244 45.6606 72.7692 45.8721 73.2664C46.3383 74.3621 47.457 74.683 48.3405 73.9192C48.9529 73.3898 49.7361 72.9339 50.2122 73.6423C50.6298 74.2638 49.8385 74.8829 49.2704 75.2734C47.8282 76.2648 45.7399 75.9208 44.6634 74.5557C43.5669 73.1653 43.7644 70.85 45.0781 69.6933C46.3475 68.5755 48.4889 68.5989 49.651 69.7786C50.0174 70.1506 50.6978 70.6281 50.2246 71.1408C49.8068 71.5935 49.077 71.4068 48.5089 70.9962C47.2807 70.1085 46.5616 70.269 45.7836 71.6372Z" fill="#FA8316"/>
<path d="M41.6958 70.8627C41.6997 70.3773 41.699 69.9937 41.709 69.6103C41.7217 69.1261 42.0153 68.938 42.4595 68.9318C42.9066 68.9256 43.3652 69.001 43.3811 69.5489C43.4245 71.043 43.6168 72.5561 43.2222 74.0237C42.8633 75.3586 41.6489 75.9508 39.9361 75.7394C38.7496 75.593 37.9477 74.673 37.9045 73.3367C37.8662 72.1521 37.8993 70.9652 37.8651 69.7804C37.849 69.2229 38.0157 68.9172 38.6192 68.9213C39.1596 68.9249 39.4876 69.1142 39.4854 69.7068C39.4826 70.4739 39.4827 71.2414 39.5039 72.0081C39.5154 72.4245 39.5473 72.8439 39.616 73.2543C39.7182 73.8649 40.0571 74.3376 40.7134 74.3036C41.4368 74.266 41.6887 73.7286 41.6902 73.0569C41.6918 72.3595 41.694 71.662 41.6958 70.8627Z" fill="#FA8316"/>
<path d="M3.4161 75.7667C1.25045 75.658 -0.035985 74.3078 0.000766786 72.2686C0.0363418 70.2944 1.41773 68.9169 3.38157 68.8971C5.07969 68.8801 6.24167 69.7736 6.31331 71.1996C5.65917 71.4183 5.06526 71.4162 4.49311 70.9098C3.92209 70.4044 3.24226 70.2816 2.55756 70.6796C1.8283 71.1036 1.67861 71.8116 1.7651 72.5845C1.85248 73.3655 2.20762 73.984 2.98016 74.2675C3.48545 74.4528 3.9375 74.2812 4.34168 73.957C4.558 73.7835 4.75285 73.5565 4.99914 73.4529C5.42965 73.2717 5.9394 73.2164 6.25069 73.6173C6.53888 73.9885 6.19067 74.3451 5.96221 74.6358C5.3401 75.4274 4.51013 75.8028 3.4161 75.7667Z" fill="#FA8316"/>
<path d="M24.4886 71.0294C23.9741 70.7877 23.7104 70.1454 23.0645 70.4447C22.9006 70.5207 22.7602 70.6751 22.8068 70.8584C22.9667 71.4861 23.5769 71.5054 24.0384 71.6915C24.9272 72.0499 25.8486 72.356 25.9373 73.519C25.9976 74.3095 25.7067 74.9614 25.0239 75.3908C24.0882 75.9793 23.1007 75.9553 22.1274 75.5138C21.8233 75.3758 21.5394 75.1254 21.3318 74.8597C21.0824 74.5404 20.7595 74.0902 21.1472 73.7437C21.5608 73.374 22.1132 73.4013 22.5706 73.7935C22.7272 73.9279 22.8278 74.1427 22.9997 74.2412C23.4051 74.4735 23.8505 74.4732 24.104 74.0449C24.3917 73.5589 23.9645 73.3706 23.6104 73.2123C23.0388 72.9568 22.4292 72.772 21.8891 72.4637C21.0013 71.9569 20.7196 70.8966 21.193 70.0195C21.6628 69.1492 22.4572 68.903 23.3907 68.8843C24.3378 68.8653 25.1156 69.1452 25.6018 69.9915C26.0442 70.7617 25.7449 71.0605 24.4886 71.0294Z" fill="#FA8316"/>
<path d="M27.5882 70.4419C27.3811 70.3977 27.2429 70.3696 27.1047 70.3698C26.6158 70.3706 26.2903 70.1904 26.2858 69.6494C26.2811 69.0979 26.6238 68.9329 27.1045 68.9334C28.2905 68.9346 29.4766 68.9361 30.6627 68.9404C31.0993 68.942 31.4139 69.1094 31.4504 69.5897C31.4857 70.054 31.2484 70.3505 30.7953 70.3585C29.8619 70.375 29.7599 70.9419 29.7714 71.6923C29.7879 72.7718 29.7154 73.8524 29.7186 74.9324C29.7204 75.5097 29.4887 75.7556 28.9116 75.7557C28.3473 75.7558 28.0692 75.5228 28.0692 74.95C28.0692 73.8685 28.0647 72.7869 28.0469 71.7056C28.0395 71.2612 28.109 70.7803 27.5882 70.4419Z" fill="#FA8316"/>
<path d="M52.6777 75.5189C52.6008 74.2231 52.5692 73.0066 52.5469 71.7899C52.5331 71.0379 52.4278 70.3872 51.4453 70.3662C50.9997 70.3567 50.7495 70.0721 50.7669 69.6085C50.7878 69.0524 51.1642 68.9316 51.6282 68.932C52.7775 68.9331 53.9268 68.9387 55.0761 68.9351C55.5684 68.9336 55.8753 69.1361 55.9222 69.6503C55.9741 70.2192 55.636 70.3683 55.15 70.3761C54.4297 70.3878 54.1964 70.8346 54.1938 71.4769C54.1896 72.5217 54.1913 73.5667 54.1777 74.6114C54.1617 75.8503 54.015 75.9459 52.6777 75.5189Z" fill="#FA8316"/>
<path d="M58.1376 73.3574C58.1364 73.9468 58.1251 74.4331 58.1352 74.919C58.1463 75.4528 57.9713 75.7737 57.3669 75.7815C56.7712 75.7891 56.4475 75.5678 56.4442 74.945C56.4351 73.2452 56.4179 71.5455 56.4082 69.8457C56.4049 69.2726 56.6361 68.9325 57.2704 68.9267C57.9734 68.9203 58.1534 69.2997 58.142 69.9208C58.1216 71.0316 58.1367 72.143 58.1376 73.3574Z" fill="#FA8316"/>
</svg>
